<svg id="Layer_1" data-name="Layer 1" xmlns="http://www.w3.org/2000/svg" viewBox="0 0 800 354.33"><defs><style>.cls-1{fill:#d35f7a;}</style></defs><title>primera-logo</title><path class="cls-1" d="M241.7,8.22a6.88,6.88,0,0,0-13.77,0h0V22h0a6.88,6.88,0,1,0,13.77,0V8.22Z"/><path class="cls-1" d="M241.7,49.52a6.88,6.88,0,1,0-13.77,0h0V214.75h0a6.88,6.88,0,1,0,13.77,0V49.52Z"/><path class="cls-1" d="M16.7,311.1a9.08,9.08,0,0,0-9.09,9.13l.07,16.19a9.09,9.09,0,0,0,9.17,9,1.22,1.22,0,1,0,0-2.43,6.71,6.71,0,0,1-6.72-6.62l-.07-16.19a6.69,6.69,0,0,1,13.37-.06l0,8.31a6.71,6.71,0,0,1-6.66,6.69,1.21,1.21,0,1,0,0,2.43,9.08,9.08,0,0,0,9.09-9.12l0-8.32A9.09,9.09,0,0,0,16.7,311.1Z"/><path class="cls-1" d="M318.77,311.1a9.08,9.08,0,0,0-9.09,9.13l.07,16.19a9.09,9.09,0,0,0,9.17,9,1.22,1.22,0,1,0,0-2.43,6.71,6.71,0,0,1-6.72-6.62l-.07-16.19a6.69,6.69,0,0,1,13.37-.06l0,8.31a6.71,6.71,0,0,1-6.66,6.69,1.21,1.21,0,1,0,0,2.43,9.09,9.09,0,0,0,9.09-9.12l0-8.32A9.09,9.09,0,0,0,318.77,311.1Z"/><path class="cls-1" d="M424.55,311.1a9.09,9.09,0,0,0-9.09,9.13l.07,16.19a9.09,9.09,0,0,0,9.17,9,1.22,1.22,0,1,0,0-2.43A6.71,6.71,0,0,1,418,336.4l-.07-16.19a6.69,6.69,0,0,1,13.38-.06l0,8.31a6.71,6.71,0,0,1-6.66,6.69,1.21,1.21,0,1,0,0,2.43,9.08,9.08,0,0,0,9.09-9.12l0-8.32A9.09,9.09,0,0,0,424.55,311.1Z"/><path class="cls-1" d="M54.62,326.38a11.26,11.26,0,0,1-4.67-2.14,5.58,5.58,0,0,1-1.83-4.19A6.29,6.29,0,1,1,60.7,320a1.23,1.23,0,0,0,1.23,1.22A1.19,1.19,0,0,0,63.15,320a8.74,8.74,0,0,0-17.49.08A7.72,7.72,0,0,0,48.32,326a12.06,12.06,0,0,0,5.9,2.77c3.56.8,7.36,2.76,7.38,7.08a7.11,7.11,0,0,1-14.22.06,1.23,1.23,0,0,0-1.23-1.22,1.27,1.27,0,0,0-1.22,1.23A9.56,9.56,0,1,0,64,335.84a8.67,8.67,0,0,0-2.89-6.46A13.36,13.36,0,0,0,54.62,326.38Z"/><path class="cls-1" d="M92.51,343.07a6.74,6.74,0,0,1-6.73-6.67l-.11-25.87a9.09,9.09,0,0,0,6.72,2.89,1.22,1.22,0,1,0,0-2.44,6.75,6.75,0,0,1-6.73-6.68,1.22,1.22,0,0,0-2.45,0l.15,32.1a9.13,9.13,0,0,0,9.19,9.11,1.22,1.22,0,1,0,0-2.45Z"/><path class="cls-1" d="M584.86,343.07a6.74,6.74,0,0,1-6.73-6.67L578,310.53a9.08,9.08,0,0,0,6.72,2.89,1.22,1.22,0,1,0,0-2.44A6.75,6.75,0,0,1,578,304.3a1.22,1.22,0,0,0-2.45,0l.15,32.1a9.13,9.13,0,0,0,9.19,9.11,1.22,1.22,0,0,0,0-2.45Z"/><path class="cls-1" d="M160.63,343.07a6.74,6.74,0,0,1-6.73-6.67l-.12-25.87a9.08,9.08,0,0,0,6.72,2.89,1.22,1.22,0,1,0,0-2.44,6.75,6.75,0,0,1-6.73-6.68,1.22,1.22,0,0,0-2.45,0l.15,32.1a9.13,9.13,0,0,0,9.19,9.11,1.22,1.22,0,1,0,0-2.45Z"/><path class="cls-1" d="M132.08,304.31a1.22,1.22,0,0,0-2.45,0A6.75,6.75,0,0,1,122.9,311h0a9.13,9.13,0,0,0-9.11,9.19l.07,16.27a9.13,9.13,0,0,0,9.19,9.11,1.23,1.23,0,0,0,0-2.45,6.74,6.74,0,0,1-6.73-6.67l-.08-16.28a6.7,6.7,0,1,1,13.4-.05l0,8.34a6.74,6.74,0,0,1-6.67,6.74,1.22,1.22,0,0,0,0,2.45,9.13,9.13,0,0,0,9.11-9.19l0-8.35a9.12,9.12,0,0,0-4.56-7.87A9.11,9.11,0,0,0,132.08,304.31Z"/><path class="cls-1" d="M183,311.08a1.19,1.19,0,0,0-1.22,1.23v32a1.22,1.22,0,1,0,2.45,0v-32A1.19,1.19,0,0,0,183,311.08Z"/><path class="cls-1" d="M221.63,335.11a1.2,1.2,0,0,0-1.22,1.23,6.7,6.7,0,1,1-13.4.06l-.07-16.17a6.7,6.7,0,0,1,13.4-.06,1.22,1.22,0,1,0,2.45,0,9.15,9.15,0,1,0-18.3.09l.07,16.17a9.15,9.15,0,0,0,18.3-.08A1.2,1.2,0,0,0,221.63,335.11Z"/><path class="cls-1" d="M251.41,311.15a1.22,1.22,0,0,0,0,2.45,6.74,6.74,0,0,1,6.73,6.67l.07,16.05a6.7,6.7,0,1,1-13.4.06l0-8.12a6.74,6.74,0,0,1,6.67-6.73,1.23,1.23,0,0,0,0-2.45,9.13,9.13,0,0,0-9.11,9.19l0,8.12a9.15,9.15,0,1,0,18.3-.08l-.07-16.05A9.13,9.13,0,0,0,251.41,311.15Z"/><path class="cls-1" d="M546.31,311.15a1.22,1.22,0,0,0,0,2.45,6.75,6.75,0,0,1,6.74,6.67l.07,16.05a6.7,6.7,0,1,1-13.4.06l0-8.12a6.74,6.74,0,0,1,6.67-6.73,1.23,1.23,0,1,0,0-2.45,9.13,9.13,0,0,0-9.11,9.19l0,8.12a9.15,9.15,0,1,0,18.3-.08l-.07-16.05A9.13,9.13,0,0,0,546.31,311.15Z"/><path class="cls-1" d="M783.11,311.15a1.22,1.22,0,1,0,0,2.45,6.74,6.74,0,0,1,6.73,6.67l.07,16.05a6.7,6.7,0,1,1-13.41.06l0-8.12a6.73,6.73,0,0,1,6.67-6.73,1.23,1.23,0,0,0,0-2.45,9.13,9.13,0,0,0-9.11,9.19l0,8.12a9.15,9.15,0,1,0,18.3-.08l-.07-16.05A9.13,9.13,0,0,0,783.11,311.15Z"/><path class="cls-1" d="M394,303.09a1.23,1.23,0,0,0-1.22,1.22l.15,32a6.7,6.7,0,1,1-13.4.06l-.08-16.19a6.75,6.75,0,0,1,6.67-6.74,6.57,6.57,0,0,1,2.62.51,1.14,1.14,0,0,0,1.57-.65,1.21,1.21,0,0,0-.65-1.63A9.19,9.19,0,0,0,377,320.24l.07,16.19a9.15,9.15,0,0,0,18.3-.09l-.14-32A1.19,1.19,0,0,0,394,303.09Z"/><path class="cls-1" d="M463,311.1a9.12,9.12,0,0,0-9.11,9.19l.1,24a1.22,1.22,0,0,0,2.45,0l-.11-24a6.74,6.74,0,0,1,6.67-6.73,1.22,1.22,0,1,0,0-2.45Z"/><path class="cls-1" d="M508.49,311.1a9,9,0,0,0-6.46,2.71,1.24,1.24,0,1,0,1.76,1.74,6.48,6.48,0,0,1,4.71-2,6.75,6.75,0,0,1,6.73,6.67l.11,24a1.22,1.22,0,0,0,2.45,0l-.1-24A9.13,9.13,0,0,0,508.49,311.1Z"/><path class="cls-1" d="M492.64,311.17a9.12,9.12,0,0,0-9.11,9.19l.11,24a1.22,1.22,0,1,0,2.45,0l-.11-24a6.7,6.7,0,1,1,13.4-.06l.11,24a1.22,1.22,0,0,0,2.45,0l-.11-24A9.12,9.12,0,0,0,492.64,311.17Z"/><path class="cls-1" d="M614.91,311.15a9.13,9.13,0,0,0-9.11,9.19l.07,16.08a9.15,9.15,0,1,0,18.3-.08l-.07-16.09A9.13,9.13,0,0,0,614.91,311.15Zm.15,31.93a6.74,6.74,0,0,1-6.73-6.67l-.07-16.09a6.7,6.7,0,1,1,13.4-.06l.07,16.08A6.74,6.74,0,0,1,615.05,343.08Z"/><path class="cls-1" d="M683.27,311.15a9.13,9.13,0,0,0-9.11,9.19l.07,16.08a9.15,9.15,0,1,0,18.3-.08l-.07-16.09A9.13,9.13,0,0,0,683.27,311.15Zm.15,31.93a6.73,6.73,0,0,1-6.73-6.67l-.07-16.09a6.7,6.7,0,1,1,13.4-.06l.07,16.08A6.74,6.74,0,0,1,683.41,343.08Z"/><path class="cls-1" d="M653.75,340.25a6.74,6.74,0,0,1-6.73-6.67l-.14-30.89a1.22,1.22,0,1,0-2.45,0l.14,30.88a9.13,9.13,0,0,0,9.19,9.11,1.23,1.23,0,0,0,0-2.45Z"/><path class="cls-1" d="M721.68,311.15a9.16,9.16,0,0,0-9.11,9.19l.07,15.85a9.17,9.17,0,0,0,9.19,9.11,1.22,1.22,0,0,0,0-2.45,6.74,6.74,0,0,1-6.73-6.67L715,320.32a6.7,6.7,0,1,1,13.4-.06l.11,23.77a6.7,6.7,0,0,1-6.67,6.74,1.22,1.22,0,0,0,0,2.45A9.13,9.13,0,0,0,731,344l-.11-23.78A9.13,9.13,0,0,0,721.68,311.15Z"/><path class="cls-1" d="M184.23,304.31a1.23,1.23,0,0,0-2.45,0v2.46a1.23,1.23,0,0,0,2.45,0h0v-2.46Z"/><path class="cls-1" d="M752.09,311.08a1.19,1.19,0,0,0-1.22,1.23v32a1.22,1.22,0,1,0,2.45,0v-32A1.2,1.2,0,0,0,752.09,311.08Z"/><path class="cls-1" d="M753.32,304.31a1.23,1.23,0,0,0-2.45,0v2.46a1.23,1.23,0,0,0,2.45,0h0v-2.46Z"/><path class="cls-1" d="M55.84,42.64A48.18,48.18,0,0,0,7.66,90.82v82.6a6.88,6.88,0,0,0,13.77,0V90.82a34.42,34.42,0,0,1,68.84,0h0v82.6h0a34.42,34.42,0,0,1-34.42,34.42A48.18,48.18,0,0,0,7.66,256h0a6.88,6.88,0,1,0,13.77,0h0a34.42,34.42,0,0,1,34.42-34.41h0A48.18,48.18,0,0,0,104,173.43V90.82A48.18,48.18,0,0,0,55.84,42.64Z"/><path class="cls-1" d="M186.63,42.64a48.19,48.19,0,0,0-48.19,48.18h0v123.9a6.88,6.88,0,0,0,13.77,0V90.82a34.42,34.42,0,0,1,34.42-34.41h0a6.88,6.88,0,0,0,0-13.77Z"/><path class="cls-1" d="M668.48,42.64A48.18,48.18,0,0,0,620.3,90.82v123.9a6.88,6.88,0,0,0,13.77,0V90.82a34.41,34.41,0,0,1,34.41-34.41h0a6.88,6.88,0,1,0,0-13.77Z"/><path class="cls-1" d="M585.88,132.13V90.82h0a48.15,48.15,0,0,0-23.36-41.3,48.16,48.16,0,0,0,23.36-41.3h0a6.88,6.88,0,1,0-13.77,0h0A34.42,34.42,0,0,1,537.7,42.64h0a48.19,48.19,0,0,0-48.18,48.18h0v82.6h0a48.18,48.18,0,0,0,48.19,48.18,6.88,6.88,0,0,0,0-13.77,34.41,34.41,0,0,1-34.42-34.41V90.82a34.42,34.42,0,0,1,68.84,0v41.3a34.42,34.42,0,0,1-34.42,34.42,6.88,6.88,0,0,0,0,13.77,48.18,48.18,0,0,0,48.19-48.18Z"/><path class="cls-1" d="M744.2,42.64a6.88,6.88,0,1,0,0,13.77A34.42,34.42,0,0,1,778.62,90.8v82.63a34.42,34.42,0,0,1-68.83,0v-41.3A34.42,34.42,0,0,1,744.2,97.71a6.88,6.88,0,1,0,0-13.77A48.18,48.18,0,0,0,696,132.13v41.3a48.18,48.18,0,0,0,96.37,0h0V90.83h0A48.18,48.18,0,0,0,744.2,42.64Z"/><path class="cls-1" d="M324.3,42.64a48.19,48.19,0,0,0-48.19,48.18h0v123.9a6.88,6.88,0,0,0,13.77,0V90.82a34.42,34.42,0,0,1,68.83,0v123.9a6.88,6.88,0,0,0,13.77,0V90.82A48.18,48.18,0,0,0,324.3,42.64Z"/><path class="cls-1" d="M455.09,90.82a48.16,48.16,0,0,0-74.87-40.1,6.89,6.89,0,1,0,7.53,11.53h0a34.38,34.38,0,0,1,53.57,28.56v123.9a6.88,6.88,0,1,0,13.76,0Z"/></svg>